<svg aria-hidden="true" style="position: absolute; width: 0; height: 0; overflow: hidden;" version="1.1" xmlns="http://www.w3.org/2000/svg" xmlns:xlink="http://www.w3.org/1999/xlink">
<defs>

<symbol id="icon-arrow-back" viewBox="0 0 16 32">
<path fill="currentColor" d="M16 28.167l-2.38 2.377-12.961-12.957c-0.209-0.208-0.375-0.454-0.488-0.726s-0.171-0.564-0.171-0.858c0-0.295 0.058-0.586 0.171-0.858s0.279-0.519 0.488-0.726l12.961-12.963 2.377 2.377-12.165 12.167 12.167 12.167z"></path>
</symbol>

<symbol id="icon-union" viewBox="0 0 71 32">
<path fill="#4462c1" style="fill: var(--color2, #4462c1)" d="M4.067 0.141c-2.175 0-3.938 1.763-3.938 3.938v23.877c0 2.175 1.763 3.938 3.938 3.938h60.53c2.175 0 3.938-1.763 3.938-3.938v-23.128l1.99-0.973-2.211-1.081c-0.538-1.534-1.999-2.634-3.717-2.634h-60.53z"></path>
</symbol>

<symbol id="icon-star" viewBox="0 0 34 32">
<path fill="#fff4a2" style="fill: var(--color3, #fff4a2); stroke: var(--color4, #f1c644)" opacity="0.65" stroke="#f1c644" stroke-linejoin="miter" stroke-linecap="butt" stroke-miterlimit="4" stroke-width="1.8824" d="M16.941 2.451l3.999 9.614 10.379 0.832-7.908 6.774 0.133 0.559 2.283 9.569-8.886-5.428-8.886 5.428 2.416-10.128-7.908-6.774 10.379-0.832 3.999-9.614z"></path>
</symbol>

<symbol id="icon-arrow-load" viewBox="0 0 31 32">
<path fill="#fff" style="fill: var(--color1, #fff)" d="M15.36 23.020c-0.229 0-0.441-0.038-0.636-0.113s-0.385-0.206-0.57-0.393l-5.589-5.587c-0.208-0.208-0.316-0.452-0.324-0.734s0.1-0.54 0.324-0.774c0.236-0.236 0.49-0.356 0.762-0.361 0.273-0.004 0.527 0.112 0.762 0.348l4.205 4.205v-17.387c0-0.303 0.102-0.557 0.305-0.762s0.457-0.306 0.762-0.305c0.304 0.001 0.558 0.103 0.762 0.305s0.305 0.456 0.305 0.762v17.387l4.205-4.205c0.208-0.208 0.454-0.316 0.74-0.326s0.546 0.103 0.781 0.339c0.228 0.235 0.344 0.486 0.348 0.755s-0.111 0.52-0.346 0.753l-5.589 5.589c-0.185 0.185-0.375 0.315-0.57 0.39-0.193 0.075-0.405 0.113-0.636 0.113zM3.874 31.024c-0.983 0-1.803-0.328-2.46-0.986s-0.986-1.478-0.988-2.462v-4.102c0-0.303 0.102-0.556 0.305-0.759s0.457-0.306 0.762-0.307c0.304-0.001 0.558 0.101 0.762 0.307s0.305 0.459 0.305 0.759v4.102c0 0.329 0.137 0.63 0.41 0.905s0.574 0.411 0.902 0.41h22.976c0.327 0 0.628-0.137 0.902-0.41s0.411-0.575 0.41-0.905v-4.102c0-0.303 0.102-0.556 0.305-0.759s0.457-0.306 0.762-0.307c0.304-0.001 0.558 0.101 0.762 0.307s0.305 0.459 0.305 0.759v4.102c0 0.983-0.328 1.803-0.986 2.46s-1.478 0.986-2.462 0.988h-22.972z"></path>
</symbol>

<symbol id="icon-burger-btn" viewBox="0 0 43 32">
<path fill="#fff" style="fill: var(--color1, #fff)" d="M15.36 23.020c-0.229 0-0.441-0.038-0.636-0.113s-0.385-0.206-0.57-0.393l-5.589-5.587c-0.208-0.208-0.316-0.452-0.324-0.734s0.1-0.54 0.324-0.774c0.236-0.236 0.49-0.356 0.762-0.361 0.273-0.004 0.527 0.112 0.762 0.348l4.205 4.205v-17.387c0-0.303 0.102-0.557 0.305-0.762s0.457-0.306 0.762-0.305c0.304 0.001 0.558 0.103 0.762 0.305s0.305 0.456 0.305 0.762v17.387l4.205-4.205c0.208-0.208 0.454-0.316 0.74-0.326s0.546 0.103 0.781 0.339c0.228 0.235 0.344 0.486 0.348 0.755s-0.111 0.52-0.346 0.753l-5.589 5.589c-0.185 0.185-0.375 0.315-0.57 0.39-0.193 0.075-0.405 0.113-0.636 0.113zM3.874 31.024c-0.983 0-1.803-0.328-2.46-0.986s-0.986-1.478-0.988-2.462v-4.102c0-0.303 0.102-0.556 0.305-0.759s0.457-0.306 0.762-0.307c0.304-0.001 0.558 0.101 0.762 0.307s0.305 0.459 0.305 0.759v4.102c0 0.329 0.137 0.63 0.41 0.905s0.574 0.411 0.902 0.41h22.976c0.327 0 0.628-0.137 0.902-0.41s0.411-0.575 0.41-0.905v-4.102c0-0.303 0.102-0.556 0.305-0.759s0.457-0.306 0.762-0.307c0.304-0.001 0.558 0.101 0.762 0.307s0.305 0.459 0.305 0.759v4.102c0 0.983-0.328 1.803-0.986 2.46s-1.478 0.986-2.462 0.988h-22.972z"></path>
</symbol>

<symbol id="icon-close-btn" viewBox="0 0 32 32">
<path fill="none" stroke="#f5b000" style="stroke: var(--color5, #f5b000)" stroke-linejoin="round" stroke-linecap="round" stroke-miterlimit="10" stroke-width="4.4444" d="M3.428 28.572l25.144-25.144M28.572 28.572l-25.144-25.144"></path>
</symbol>

</defs>
</svg>
